<svg xmlns="http://www.w3.org/2000/svg" viewBox="0 0 900 312" width="900" height="312" font-family="Noto Sans, Noto Sans Bengali, DejaVu Sans, sans-serif"><defs><marker id="ar" markerWidth="9" markerHeight="9" refX="8" refY="3" orient="auto"><path d="M0,0 L8,3 L0,6 z" fill="#8fa89b"/></marker><marker id="arg" markerWidth="9" markerHeight="9" refX="8" refY="3" orient="auto"><path d="M0,0 L8,3 L0,6 z" fill="#14532d"/></marker><marker id="ara" markerWidth="9" markerHeight="9" refX="8" refY="3" orient="auto"><path d="M0,0 L8,3 L0,6 z" fill="#b45309"/></marker><marker id="arr" markerWidth="9" markerHeight="9" refX="8" refY="3" orient="auto"><path d="M0,0 L8,3 L0,6 z" fill="#9b1c1c"/></marker></defs><rect width="900" height="312" fill="#ffffff"/><rect x="30" y="20" width="250" height="56" rx="7" fill="#eef5f0" stroke="#14532d" stroke-width="1.4"/><text x="155.0" y="44.28" text-anchor="middle" font-size="10.5" font-weight="700" fill="#14532d">Verification status</text><text x="155.0" y="59.28" text-anchor="middle" font-size="9.3" font-weight="400" fill="#5a6b62">VERIFIED 90 · PENDING 60 · REJECTED 30</text><rect x="30" y="92" width="250" height="56" rx="7" fill="#eef5f0" stroke="#14532d" stroke-width="1.4"/><text x="155.0" y="116.28" text-anchor="middle" font-size="10.5" font-weight="700" fill="#14532d">Average review rating</text><text x="155.0" y="131.28" text-anchor="middle" font-size="9.3" font-weight="400" fill="#5a6b62">(avg / 5) × 100 · review না থাকলে 70</text><rect x="30" y="164" width="250" height="56" rx="7" fill="#eef5f0" stroke="#14532d" stroke-width="1.4"/><text x="155.0" y="188.28" text-anchor="middle" font-size="10.5" font-weight="700" fill="#14532d">Delivery completion</text><text x="155.0" y="203.28" text-anchor="middle" font-size="9.3" font-weight="400" fill="#5a6b62">(delivered / total) × 100 · order না থাকলে 75</text><line x1="280" y1="48" x2="348" y2="120" stroke="#14532d" stroke-width="1.6" marker-end="url(#arg)"/><text x="316" y="42" text-anchor="middle" font-size="10" font-weight="700" fill="#b45309">× 0.35</text><line x1="280" y1="120" x2="348" y2="120" stroke="#14532d" stroke-width="1.6" marker-end="url(#arg)"/><text x="316" y="114" text-anchor="middle" font-size="10" font-weight="700" fill="#b45309">× 0.40</text><line x1="280" y1="192" x2="348" y2="120" stroke="#14532d" stroke-width="1.6" marker-end="url(#arg)"/><text x="316" y="202" text-anchor="middle" font-size="10" font-weight="700" fill="#b45309">× 0.25</text><rect x="350" y="92" width="210" height="56" rx="7" fill="#14532d" stroke="#14532d" stroke-width="1.4"/><text x="455.0" y="116.14" text-anchor="middle" font-size="11.5" font-weight="700" fill="#fff">clamp(0 … 100)</text><text x="455.0" y="132.14" text-anchor="middle" font-size="10.3" font-weight="400" fill="#5a6b62">overall_score</text><line x1="560" y1="120" x2="600" y2="120" stroke="#14532d" stroke-width="1.6" marker-end="url(#arg)"/><rect x="602" y="60" width="268" height="120" rx="7" fill="#fdf3e3" stroke="#b45309" stroke-width="1.4"/><text x="736.0" y="93.78" text-anchor="middle" font-size="10.5" font-weight="700" fill="#b45309">badgeForScore()</text><text x="736.0" y="108.78" text-anchor="middle" font-size="9.3" font-weight="400" fill="#5a6b62">≥ 90 → Trusted Seller</text><text x="736.0" y="123.78" text-anchor="middle" font-size="9.3" font-weight="400" fill="#5a6b62">≥ 75 → Reliable Farmer</text><text x="736.0" y="138.78" text-anchor="middle" font-size="9.3" font-weight="400" fill="#5a6b62">≥ 55 → Growing Farmer</text><text x="736.0" y="153.78" text-anchor="middle" font-size="9.3" font-weight="400" fill="#5a6b62">&lt; 55 → New Farmer</text><rect x="30" y="238" width="840" height="58" rx="7" fill="#eef1fb" stroke="#1e3a8a" stroke-width="1.4"/><text x="450.0" y="263.37800000000004" text-anchor="middle" font-size="9.8" font-weight="700" fill="#1e3a8a">পুনরায় গণনা হয় যখন:  নতুন review জমা পড়ে  ·  admin verification approve/reject করে  ·  order DELIVERED / CANCELLED হয়  ·  admin কোনো review hide/republish করে</text><text x="450.0" y="277.67800000000005" text-anchor="middle" font-size="8.600000000000001" font-weight="400" fill="#5a6b62">recomputeFarmerReputation() → FarmerProfile.reputationScore ও badge ডাটাবেসে লিখে রাখে</text></svg>